<svg width="274" height="86" viewBox="0 0 274 86" fill="none" xmlns="http://www.w3.org/2000/svg">
<path d="M82.2727 13.2188C82.1335 12.7348 81.938 12.3073 81.6861 11.9361C81.4342 11.5582 81.1259 11.2401 80.7614 10.9815C80.4034 10.7164 79.9924 10.5142 79.5284 10.375C79.071 10.2358 78.5639 10.1662 78.0071 10.1662C76.9664 10.1662 76.0516 10.4247 75.2628 10.9418C74.4806 11.4588 73.8707 12.2112 73.4332 13.1989C72.9957 14.1799 72.777 15.3797 72.777 16.7983C72.777 18.2169 72.9924 19.4233 73.4233 20.4176C73.8542 21.4119 74.464 22.1709 75.2528 22.6946C76.0417 23.2116 76.973 23.4702 78.0469 23.4702C79.0213 23.4702 79.8532 23.2978 80.5426 22.9531C81.2386 22.6018 81.7689 22.108 82.1335 21.4716C82.5047 20.8352 82.6903 20.0829 82.6903 19.2145L83.5653 19.3438H78.3153V16.1023H86.8366V18.6676C86.8366 20.4574 86.4588 21.9953 85.7031 23.2812C84.9474 24.5606 83.9067 25.5483 82.581 26.2443C81.2552 26.9337 79.7372 27.2784 78.027 27.2784C76.1179 27.2784 74.4408 26.8575 72.9957 26.0156C71.5507 25.1671 70.4238 23.964 69.6151 22.4062C68.813 20.8419 68.4119 18.9858 68.4119 16.8381C68.4119 15.1875 68.6506 13.7159 69.1278 12.4233C69.6117 11.1241 70.2879 10.0237 71.1562 9.12216C72.0246 8.22064 73.0355 7.53456 74.1889 7.06392C75.3423 6.59328 76.5919 6.35795 77.9375 6.35795C79.0909 6.35795 80.1648 6.52699 81.1591 6.86506C82.1534 7.1965 83.035 7.66714 83.804 8.27699C84.5795 8.88684 85.2126 9.61269 85.7031 10.4545C86.1937 11.2898 86.5085 12.2112 86.6477 13.2188H82.2727ZM89.9911 27V11.7273H94.0977V14.392H94.2567C94.5352 13.4441 95.0025 12.7282 95.6587 12.2443C96.315 11.7538 97.0707 11.5085 97.9258 11.5085C98.1379 11.5085 98.3666 11.5218 98.6119 11.5483C98.8571 11.5748 99.0726 11.6113 99.2582 11.6577V15.4162C99.0593 15.3565 98.7842 15.3035 98.4329 15.2571C98.0816 15.2107 97.7601 15.1875 97.4684 15.1875C96.8453 15.1875 96.2885 15.3234 95.7979 15.5952C95.314 15.8603 94.9296 16.2315 94.6445 16.7088C94.3661 17.1861 94.2269 17.7363 94.2269 18.3594V27H89.9911ZM111.242 20.4972V11.7273H115.478V27H111.411V24.2259H111.252C110.907 25.1207 110.334 25.84 109.532 26.3835C108.737 26.9271 107.765 27.1989 106.619 27.1989C105.598 27.1989 104.7 26.9669 103.924 26.5028C103.148 26.0388 102.542 25.3793 102.104 24.5241C101.674 23.669 101.455 22.6449 101.448 21.4517V11.7273H105.684V20.696C105.691 21.5975 105.933 22.3101 106.41 22.8338C106.887 23.3575 107.527 23.6193 108.329 23.6193C108.839 23.6193 109.317 23.5033 109.761 23.2713C110.205 23.0327 110.563 22.6813 110.835 22.2173C111.113 21.7533 111.249 21.1799 111.242 20.4972ZM106.957 9.75852L109.065 5.23438H112.982L109.95 9.75852H106.957ZM123.221 27.2884C122.247 27.2884 121.378 27.1193 120.616 26.7812C119.854 26.4366 119.251 25.9295 118.806 25.2599C118.369 24.5838 118.15 23.742 118.15 22.7344C118.15 21.8859 118.306 21.1733 118.618 20.5966C118.929 20.0199 119.353 19.5559 119.89 19.2045C120.427 18.8532 121.037 18.5881 121.72 18.4091C122.409 18.2301 123.132 18.1042 123.887 18.0312C124.776 17.9384 125.492 17.8523 126.035 17.7727C126.579 17.6866 126.973 17.5606 127.218 17.3949C127.464 17.2292 127.586 16.9839 127.586 16.6591V16.5994C127.586 15.9697 127.387 15.4825 126.99 15.1378C126.599 14.7931 126.042 14.6207 125.319 14.6207C124.557 14.6207 123.95 14.7898 123.5 15.1278C123.049 15.4593 122.751 15.8769 122.605 16.3807L118.687 16.0625C118.886 15.1345 119.277 14.3324 119.86 13.6562C120.444 12.9735 121.196 12.4498 122.118 12.0852C123.046 11.714 124.119 11.5284 125.339 11.5284C126.188 11.5284 127 11.6278 127.775 11.8267C128.557 12.0256 129.25 12.3338 129.853 12.7514C130.463 13.169 130.944 13.706 131.295 14.3622C131.646 15.0118 131.822 15.7907 131.822 16.6989V27H127.805V24.8821H127.686C127.44 25.3594 127.112 25.7803 126.701 26.1449C126.29 26.5028 125.797 26.7846 125.22 26.9901C124.643 27.1889 123.977 27.2884 123.221 27.2884ZM124.434 24.3651C125.057 24.3651 125.608 24.2424 126.085 23.9972C126.562 23.7453 126.937 23.4072 127.208 22.983C127.48 22.5587 127.616 22.0781 127.616 21.5412V19.9205C127.484 20.0066 127.301 20.0862 127.069 20.1591C126.844 20.2254 126.589 20.2884 126.304 20.348C126.019 20.401 125.734 20.4508 125.449 20.4972C125.163 20.5369 124.905 20.5734 124.673 20.6065C124.176 20.6795 123.742 20.7955 123.37 20.9545C122.999 21.1136 122.711 21.3291 122.505 21.6009C122.3 21.866 122.197 22.1974 122.197 22.5952C122.197 23.1719 122.406 23.6127 122.824 23.9176C123.248 24.2159 123.785 24.3651 124.434 24.3651ZM147.816 16.0824L143.938 16.321C143.872 15.9896 143.729 15.6913 143.51 15.4261C143.292 15.1544 143.003 14.9389 142.645 14.7798C142.294 14.6141 141.873 14.5312 141.382 14.5312C140.726 14.5312 140.173 14.6705 139.722 14.9489C139.271 15.2206 139.046 15.5852 139.046 16.0426C139.046 16.4072 139.192 16.7154 139.483 16.9673C139.775 17.2192 140.275 17.4214 140.985 17.5739L143.749 18.1307C145.234 18.4356 146.341 18.9261 147.07 19.6023C147.799 20.2784 148.164 21.1667 148.164 22.267C148.164 23.268 147.869 24.1463 147.279 24.902C146.695 25.6577 145.893 26.2476 144.873 26.6719C143.858 27.0895 142.688 27.2983 141.363 27.2983C139.341 27.2983 137.73 26.8774 136.53 26.0355C135.337 25.187 134.638 24.0336 134.432 22.5753L138.598 22.3565C138.724 22.973 139.029 23.4437 139.513 23.7685C139.997 24.0866 140.617 24.2457 141.373 24.2457C142.115 24.2457 142.712 24.1032 143.162 23.8182C143.62 23.5265 143.852 23.152 143.858 22.6946C143.852 22.3101 143.689 21.9953 143.371 21.75C143.053 21.4981 142.562 21.3059 141.9 21.1733L139.255 20.6463C137.763 20.348 136.653 19.831 135.924 19.0952C135.201 18.3594 134.84 17.4214 134.84 16.2812C134.84 15.3002 135.105 14.455 135.635 13.7457C136.172 13.0365 136.925 12.4896 137.892 12.1051C138.867 11.7206 140.007 11.5284 141.313 11.5284C143.242 11.5284 144.76 11.9361 145.867 12.7514C146.98 13.5668 147.63 14.6771 147.816 16.0824Z" fill="black"/>
<path d="M4.04545 23.4545H16.1818L29 54.7273H29.5455L42.3636 23.4545H54.5V70H44.9545V39.7045H44.5682L32.5227 69.7727H26.0227L13.9773 39.5909H13.5909V70H4.04545V23.4545ZM78.1989 70.6818C74.6686 70.6818 71.6155 69.9318 69.0398 68.4318C66.4792 66.9167 64.5019 64.8106 63.108 62.1136C61.714 59.4015 61.017 56.2576 61.017 52.6818C61.017 49.0758 61.714 45.9242 63.108 43.2273C64.5019 40.5152 66.4792 38.4091 69.0398 36.9091C71.6155 35.3939 74.6686 34.6364 78.1989 34.6364C81.7292 34.6364 84.7746 35.3939 87.3352 36.9091C89.911 38.4091 91.8958 40.5152 93.2898 43.2273C94.6837 45.9242 95.3807 49.0758 95.3807 52.6818C95.3807 56.2576 94.6837 59.4015 93.2898 62.1136C91.8958 64.8106 89.911 66.9167 87.3352 68.4318C84.7746 69.9318 81.7292 70.6818 78.1989 70.6818ZM78.2443 63.1818C79.8504 63.1818 81.1913 62.7273 82.267 61.8182C83.3428 60.8939 84.1534 59.6364 84.6989 58.0455C85.2595 56.4545 85.5398 54.6439 85.5398 52.6136C85.5398 50.5833 85.2595 48.7727 84.6989 47.1818C84.1534 45.5909 83.3428 44.3333 82.267 43.4091C81.1913 42.4848 79.8504 42.0227 78.2443 42.0227C76.6231 42.0227 75.2595 42.4848 74.1534 43.4091C73.0625 44.3333 72.2367 45.5909 71.6761 47.1818C71.1307 48.7727 70.858 50.5833 70.858 52.6136C70.858 54.6439 71.1307 56.4545 71.6761 58.0455C72.2367 59.6364 73.0625 60.8939 74.1534 61.8182C75.2595 62.7273 76.6231 63.1818 78.2443 63.1818ZM101.676 70V35.0909H111.062V41.1818H111.426C112.063 39.0152 113.131 37.3788 114.631 36.2727C116.131 35.1515 117.858 34.5909 119.812 34.5909C120.297 34.5909 120.82 34.6212 121.381 34.6818C121.941 34.7424 122.434 34.8258 122.858 34.9318V43.5227C122.403 43.3864 121.775 43.2652 120.972 43.1591C120.169 43.053 119.434 43 118.767 43C117.343 43 116.07 43.3106 114.949 43.9318C113.843 44.5379 112.964 45.3864 112.312 46.4773C111.676 47.5682 111.358 48.8258 111.358 50.25V70H101.676ZM142.011 70.6818C138.436 70.6818 135.36 69.9242 132.784 68.4091C130.223 66.8788 128.254 64.7576 126.875 62.0455C125.511 59.3333 124.83 56.2121 124.83 52.6818C124.83 49.1061 125.519 45.9697 126.898 43.2727C128.292 40.5606 130.269 38.447 132.83 36.9318C135.39 35.4015 138.436 34.6364 141.966 34.6364C145.011 34.6364 147.678 35.1894 149.966 36.2955C152.254 37.4015 154.064 38.9545 155.398 40.9545C156.731 42.9545 157.466 45.303 157.602 48H148.466C148.208 46.2576 147.527 44.8561 146.42 43.7955C145.33 42.7197 143.898 42.1818 142.125 42.1818C140.625 42.1818 139.314 42.5909 138.193 43.4091C137.087 44.2121 136.223 45.3864 135.602 46.9318C134.981 48.4773 134.67 50.3485 134.67 52.5455C134.67 54.7727 134.973 56.6667 135.58 58.2273C136.201 59.7879 137.072 60.9773 138.193 61.7955C139.314 62.6136 140.625 63.0227 142.125 63.0227C143.231 63.0227 144.223 62.7955 145.102 62.3409C145.996 61.8864 146.731 61.2273 147.307 60.3636C147.898 59.4848 148.284 58.4318 148.466 57.2045H157.602C157.451 59.8712 156.723 62.2197 155.42 64.25C154.133 66.2652 152.352 67.8409 150.08 68.9773C147.807 70.1136 145.117 70.6818 142.011 70.6818ZM163.801 70V35.0909H173.483V70H163.801ZM168.665 30.5909C167.225 30.5909 165.991 30.1136 164.96 29.1591C163.945 28.1894 163.438 27.0303 163.438 25.6818C163.438 24.3485 163.945 23.2045 164.96 22.25C165.991 21.2803 167.225 20.7955 168.665 20.7955C170.104 20.7955 171.331 21.2803 172.347 22.25C173.377 23.2045 173.892 24.3485 173.892 25.6818C173.892 27.0303 173.377 28.1894 172.347 29.1591C171.331 30.1136 170.104 30.5909 168.665 30.5909ZM190.92 23.4545V70H181.239V23.4545H190.92ZM208.358 23.4545V70H198.676V23.4545H208.358ZM231.886 70.6818C228.356 70.6818 225.303 69.9318 222.727 68.4318C220.167 66.9167 218.189 64.8106 216.795 62.1136C215.402 59.4015 214.705 56.2576 214.705 52.6818C214.705 49.0758 215.402 45.9242 216.795 43.2273C218.189 40.5152 220.167 38.4091 222.727 36.9091C225.303 35.3939 228.356 34.6364 231.886 34.6364C235.417 34.6364 238.462 35.3939 241.023 36.9091C243.598 38.4091 245.583 40.5152 246.977 43.2273C248.371 45.9242 249.068 49.0758 249.068 52.6818C249.068 56.2576 248.371 59.4015 246.977 62.1136C245.583 64.8106 243.598 66.9167 241.023 68.4318C238.462 69.9318 235.417 70.6818 231.886 70.6818ZM231.932 63.1818C233.538 63.1818 234.879 62.7273 235.955 61.8182C237.03 60.8939 237.841 59.6364 238.386 58.0455C238.947 56.4545 239.227 54.6439 239.227 52.6136C239.227 50.5833 238.947 48.7727 238.386 47.1818C237.841 45.5909 237.03 44.3333 235.955 43.4091C234.879 42.4848 233.538 42.0227 231.932 42.0227C230.311 42.0227 228.947 42.4848 227.841 43.4091C226.75 44.3333 225.924 45.5909 225.364 47.1818C224.818 48.7727 224.545 50.5833 224.545 52.6136C224.545 54.6439 224.818 56.4545 225.364 58.0455C225.924 59.6364 226.75 60.8939 227.841 61.8182C228.947 62.7273 230.311 63.1818 231.932 63.1818Z" fill="black"/>
</svg>
